Coordinates
version=1
nRows=17
nColumns=40
inDegrees=yes

Units are S.I. units (second, meters, Newtons, ...)
Angles are in degrees.

endheader
time	pelvis_tilt	pelvis_list	pelvis_rotation	pelvis_tx	pelvis_ty	pelvis_tz	hip_flexion_r	hip_adduction_r	hip_rotation_r	knee_angle_r	knee_angle_r_beta	ankle_angle_r	subtalar_angle_r	mtp_angle_r	hip_flexion_l	hip_adduction_l	hip_rotation_l	knee_angle_l	knee_angle_l_beta	ankle_angle_l	subtalar_angle_l	mtp_angle_l	lumbar_extension	lumbar_bending	lumbar_rotation	arm_flex_r	arm_add_r	arm_rot_r	elbow_flex_r	pro_sup_r	wrist_flex_r	wrist_dev_r	arm_flex_l	arm_add_l	arm_rot_l	elbow_flex_l	pro_sup_l	wrist_flex_l	wrist_dev_l
     26.59500000	     -5.00773295	     -4.27429240	      1.51580560	      1.11250222	      0.91190342	      0.46492123	     -2.11507502	     -2.41133929	    -14.34986706	     29.33102813	     29.33102813	     12.78048578	     -0.61638067	    -18.79218103	     31.30552746	     -5.27872209	     -4.08771558	     30.43678507	     30.43678507	      8.72293439	    -17.94367173	     10.11103257	     -6.64747939	      4.95681935	      4.41555443	     37.50494914	    -17.64156342	    -13.31650494	     95.09696170	     44.74557153	      0.00000000	      0.00000000	    -18.73535120	     -5.91222525	     10.28546723	     22.09239991	     43.89515932	      0.00000000	      0.00000000
     26.60657143	     -4.89790914	     -4.07804508	      1.43926868	      1.11275974	      0.91343053	      0.46151319	     -0.60941715	     -3.50688370	    -13.97556060	     33.24200106	     33.24200106	     10.83813126	     -1.89530577	    -19.73074535	     30.38623611	     -4.91497542	     -4.32562616	     30.34856459	     30.34856459	      9.45009595	    -17.88306678	      9.80310801	     -6.74469924	      4.95095455	      4.14576231	     35.59333141	    -17.42571734	    -13.28237974	     94.54749973	     44.75889800	      0.00000000	      0.00000000	    -17.57343036	     -5.98693670	     10.19334664	     22.64976079	     43.94819885	      0.00000000	      0.00000000
     26.61814286	     -4.94268263	     -3.92528184	      1.33720868	      1.11274427	      0.91474256	      0.45828975	      1.27078942	     -4.48648171	    -13.34390371	     37.28154098	     37.28154098	      8.35882666	     -3.74821266	    -20.80116341	     29.56046138	     -4.59836878	     -4.58201340	     30.07470624	     30.07470624	     10.03830190	    -17.79538790	      9.50483724	     -6.66674659	      4.97249337	      4.04112895	     33.48526420	    -17.39014872	    -13.44094855	     93.88452910	     44.78330155	      0.00000000	      0.00000000	    -16.32207630	     -6.13521487	      9.96949904	     23.38558120	     44.03215483	      0.00000000	      0.00000000
     26.62971429	     -4.85284906	     -3.87169498	      1.24941433	      1.11262611	      0.91620502	      0.45533169	      3.03052873	     -5.16214707	    -12.43434146	     41.03919086	     41.03919086	      4.98012690	     -6.65540142	    -23.07512426	     28.59295707	     -4.41312361	     -4.83861704	     29.77597335	     29.77597335	     10.44667990	    -17.66645553	      8.70813315	     -6.80976109	      5.09992762	      4.28077676	     30.92114897	    -17.33085820	    -14.43189266	     93.62721312	     44.84349877	      0.00000000	      0.00000000	    -14.89252061	     -6.33228420	      8.87089527	     24.61116206	     44.35592521	      0.00000000	      0.00000000
     26.64128571	     -4.74548989	     -3.66198869	      1.16983218	      1.11229221	      0.91754661	      0.45238161	      4.97843735	     -6.17690584	    -11.88601650	     45.13847064	     45.13847064	      2.55945764	     -7.89906233	    -22.60543659	     27.60427147	     -4.07468123	     -5.19340598	     29.46873442	     29.46873442	     10.98579940	    -17.42311122	      8.39671319	     -6.97896975	      5.05725095	      3.89147049	     28.85660460	    -16.93228442	    -14.20231682	     92.58082331	     44.86432698	      0.00000000	      0.00000000	    -13.38496223	     -6.54867498	      8.67492171	     25.22095099	     44.42734479	      0.00000000	      0.00000000
     26.65285714	     -4.80685964	     -3.57913693	      1.05123518	      1.11165381	      0.91865248	      0.44979110	      7.26197960	     -6.80752279	    -10.95676495	     49.14734090	     49.14734090	      0.23445950	     -9.69041984	    -21.19396396	     26.75871235	     -3.88010068	     -5.50028933	     29.01870508	     29.01870508	     11.38155092	    -17.19122638	      7.96950893	     -6.95279567	      5.12692871	      3.79129608	     26.63479848	    -16.87686157	    -14.25092438	     91.03068264	     44.91164233	      0.00000000	      0.00000000	    -11.83018066	     -6.80237550	      8.27396778	     26.05351133	     44.53781698	      0.00000000	      0.00000000
     26.66442857	     -4.74267868	     -3.43079995	      0.96549895	      1.11091746	      0.91981656	      0.44730869	      9.42084941	     -7.46161079	    -10.13118514	     52.94002988	     52.94002988	     -1.78545224	    -11.15123354	    -19.55061759	     25.80781462	     -3.64119354	     -5.89881526	     28.61378112	     28.61378112	     11.75408460	    -16.86101736	      7.52477591	     -7.08364427	      5.15435104	      3.58840406	     24.39715877	    -16.52908375	    -14.21240369	     89.47825170	     44.95439362	      0.00000000	      0.00000000	    -10.11506011	     -7.15008713	      7.88150241	     26.90389914	     44.64266043	      0.00000000	      0.00000000
     26.67600000	     -4.68737020	     -3.46431927	      0.84703461	      1.10998708	      0.92098041	      0.44517094	     11.85040854	     -7.81284820	     -9.26692504	     57.03362680	     57.03362680	     -0.88402038	    -10.51094720	    -10.22972228	     24.81769178	     -3.62962028	     -6.25745081	     28.03496568	     28.03496568	     11.39977670	    -16.66149414	      5.27546524	     -7.26046797	      5.28400718	      3.16392925	     22.71329775	    -15.98990510	    -14.43407308	     86.56124816	     45.13086240	      0.00000000	      0.00000000	     -8.34623498	     -6.64425928	      1.79078718	     27.69243448	     45.84187489	      0.00000000	      0.00000000
     26.68757143	     -4.64724252	     -3.43316746	      0.76281545	      1.10897153	      0.92215559	      0.44311734	     14.06127229	     -8.13711524	     -8.50500931	     60.26847344	     60.26847344	     -1.55724033	    -11.21840185	     -6.77032744	     23.85931985	     -3.54467134	     -6.65135426	     27.49424666	     27.49424666	     11.57627925	    -16.19430540	      4.42969286	     -7.39645658	      5.38705577	      2.89055605	     20.77932002	    -15.50012442	    -14.64396153	     83.91104601	     45.22744235	      0.00000000	      0.00000000	     -6.48436887	     -7.01102295	      1.44624264	     28.61481482	     45.92331318	      0.00000000	      0.00000000
     26.69914286	     -4.61191502	     -3.33829342	      0.65926251	      1.10788069	      0.92334043	      0.44120945	     16.15616668	     -8.45344572	     -7.80389509	     62.94544011	     62.94544011	     -2.69539827	    -12.32300276	     -6.13739577	     22.88996157	     -3.37890512	     -7.01679260	     26.92930290	     26.92930290	     11.94485723	    -15.74859748	      4.21926140	     -7.58803720	      5.43162277	      2.64117967	     18.50902818	    -15.20580786	    -14.37286578	     82.20752319	     45.26516458	      0.00000000	      0.00000000	     -4.53020865	     -7.47951883	      1.30191803	     29.44872891	     45.97642388	      0.00000000	      0.00000000
     26.71071429	     -4.54048133	     -3.37865241	      0.56447628	      1.10672187	      0.92459953	      0.43956006	     18.29870614	     -8.51054321	     -7.12103777	     65.52922796	     65.52922796	     -2.06799701	    -12.46446819	     -1.61778512	     21.84843811	     -3.40427978	     -7.46223255	     26.25212850	     26.25212850	     11.84837475	    -15.21497683	      2.79913497	     -7.74465054	      5.57884539	      2.43398791	     16.98536281	    -14.88362759	    -14.35609158	     78.06841079	     45.39417986	      0.00000000	      0.00000000	     -2.44302718	     -7.86710094	      0.72117752	     30.30287709	     46.07785268	      0.00000000	      0.00000000
     26.72228571	     -4.51960223	     -3.30981670	      0.45388163	      1.10554900	      0.92583648	      0.43797399	     20.28837416	     -8.63304817	     -6.53271400	     67.41146234	     67.41146234	     -2.47251865	    -13.30852660	     -1.46902771	     20.84286841	     -3.28525908	     -7.89940056	     25.57109510	     25.57109510	     12.21505564	    -14.59500691	      2.60351279	     -7.93007065	      5.65857084	      2.30466293	     14.72214718	    -14.64488814	    -14.17298763	     75.99177594	     45.44604316	      0.00000000	      0.00000000	     -0.32854926	     -8.37975684	      0.58062468	     31.18275045	     46.12898818	      0.00000000	      0.00000000
     26.73385714	     -4.44722073	     -3.31610893	      0.35777131	      1.10430912	      0.92718554	      0.43662616	     22.15894119	     -8.60229280	     -6.02508486	     68.88266482	     68.88266482	     -2.59512932	    -13.94574135	     -1.31859997	     19.77466371	     -3.26720057	     -8.33458341	     24.85499490	     24.85499490	     12.48918910	    -13.84742212	      2.32863065	     -8.15576006	      5.75295968	      2.37531304	     12.54641903	    -14.52766922	    -14.10616130	     73.18132680	     45.52640376	      0.00000000	      0.00000000	      1.96073324	     -8.84347676	      0.47674773	     32.06594813	     46.17667163	      0.00000000	      0.00000000
     26.74542857	     -4.32595724	     -3.45166119	      0.25524599	      1.10310496	      0.92864710	      0.43555561	     23.85333859	     -8.41274674	     -5.71269174	     69.89685879	     69.89685879	     -2.21795418	    -14.23477114	     -0.62053752	     18.64095421	     -3.44537398	     -8.91757599	     24.10895620	     24.10895620	     12.52892634	    -12.94741169	      1.19248246	     -8.32982117	      5.93189677	      1.98830516	     11.97503645	    -13.84762403	    -14.57874938	     66.99883616	     45.73474117	      0.00000000	      0.00000000	      4.35645427	     -9.42043796	      0.68034401	     32.23747353	     46.17042795	      0.00000000	      0.00000000
     26.75700000	     -4.25071496	     -3.51481213	      0.15006376	      1.10184359	      0.92996663	      0.43451477	     25.52785652	     -8.27953673	     -5.45459613	     70.49782169	     70.49782169	     -1.92747953	    -14.57124699	     -0.49521546	     17.52585264	     -3.48709403	     -9.37890618	     23.28784922	     23.28784922	     12.64654634	    -12.20082957	      0.53177469	     -8.53894289	      6.07863027	      1.83651218	     10.60703916	    -13.55077132	    -14.48500553	     62.71125067	     45.85449215	      0.00000000	      0.00000000	      6.58233306	    -10.00365230	      0.78271358	     33.03173396	     46.17852616	      0.00000000	      0.00000000
     26.76857143	     -4.16141425	     -3.58641117	      0.04978222	      1.10058877	      0.93128256	      0.43363195	     27.05219674	     -8.11547470	     -5.29724560	     70.61089856	     70.61089856	     -1.62419866	    -14.81334917	     -0.53053926	     16.37967988	     -3.53374992	     -9.82735622	     22.44146062	     22.44146062	     12.79090561	    -11.45395867	      0.00825714	     -8.77245614	      6.22389507	      1.68369353	      9.32305326	    -13.26090156	    -14.48134495	     58.26472528	     45.98025234	      0.00000000	      0.00000000	      8.80994316	    -10.62934596	      0.99659721	     33.86855496	     46.17276663	      0.00000000	      0.00000000
     26.78014286	     -4.07918039	     -3.66567226	     -0.05049505	      1.09931058	      0.93248184	      0.43287981	     28.45328327	     -7.91886149	     -5.21446514	     70.26424343	     70.26424343	     -1.29618277	    -14.99163871	     -0.54632406	     15.24134168	     -3.58000469	    -10.25466814	     21.58440667	     21.58440667	     12.95165051	    -10.70979010	     -0.45989227	     -8.98874061	      6.36673248	      1.52175006	      8.21518493	    -12.95974629	    -14.57983689	     53.60786066	     46.11335804	      0.00000000	      0.00000000	     11.00181581	    -11.29319377	      1.32649859	     34.80874105	     46.15440706	      0.00000000	      0.00000000
